<svg id="light" xmlns="http://www.w3.org/2000/svg" width="756" height="293.5" viewBox="0 0 1512 587">
  <defs>
    <style>
      .cls-1 {
        fill: #fff;
      }

      .cls-1, .cls-2 {
        fill-rule: evenodd;
      }

      .cls-2 {
        fill: #2e86de;
      }
    </style>
  </defs>
  <path id="text" class="cls-1" d="M1187.49,460.82h-94.37l-66.95-95.329-66.8,95.329H867.494v-5l110.95-158.291-104.7-149.089v-5h94.374l61.3,87.286,59.95-87.286h91.87v5l-104,150.389,110.25,156.991v5ZM748.745,290.262q0-26.855-7.188-44.983-7.191-18.112-20.937-27.489T687.5,208.419q-15,0-33.125,8.122t-31.562,29.051q-13.447,20.938-13.438,60.914V460.82H525V11L607.5,1l1.875,5V178.771c1.026-1.172,2.063-2.331,3.125-3.464a131.849,131.849,0,0,1,43.75-30.926,134.276,134.276,0,0,1,54.374-10.933q33.75,0,61.562,14.682t44.375,43.42q16.553,28.744,16.562,71.847V460.82H748.745V290.262ZM405,103.46a49.392,49.392,0,0,1-36.25-14.994,49.353,49.353,0,0,1-15-36.236q0-20.617,15-35.611A49.391,49.391,0,0,1,405,1.625q20.625,0,35.624,14.994t15,35.611a49.353,49.353,0,0,1-15,36.236Q425.623,103.46,405,103.46Zm-42.5,39.984h84.374V470.816q0,53.1-29.062,84.03t-78.437,30.925H295V518.3l3.125-6.873h20q23.115,0,33.749-10.62T362.5,467.068V143.444Z"/>
  <path id="left-arrow" class="cls-2" d="M294,389.222L0.879,273.51v-63.8L294,94v80.06L112.908,241.611,294,309.162v80.06Z"/>
  <path id="right-arrow" class="cls-2" d="M1218,389.222L1511.12,273.51v-63.8L1218,94v80.06l181.09,67.551L1218,309.162v80.06Z"/>
</svg>
